PathFileType  4	(X/Y/Z) C:\Users\antoi\Documents\MyRepositories\mobilecap\ResultsAnalysis
DataRate	CameraRate	NumFrames	NumMarkers	Units	OrigDataRate	OrigDataStartFrame	OrigNumFrames
100.0	100.0	4	51	mm	100.0	88	140
Frame#	Time	r_knee			r_shank_antsup			r_ankle			r_calc			r_5meta			r_toe			L_knee			L_shank_antsup			L_ankle			L_calc			L_5meta			L_toe			r_sh2			r_sh3			r_sh4			L_sh2			L_sh3			r_thigh1			r_thigh2			r_thigh3			r_thigh4			r_thigh5			L_thigh1			L_thigh2			L_thigh3			L_thigh4			r.ASIS			r.PSIS			L.ASIS			L.PSIS			C7			R_Shoulder			L_Shoulder			R_Sternum			L_Sternum			R_humerus			R_elbow_med			R_elbow_lat			R_forearm			R_wrist_radius			R_wrist_ulna			L_humerus			L_elbow_med			L_elbow_lat			L_forearm			L_wrist_radius			L_wrist_ulna			R_HJC			L_HJC			R_HJC_reg			L_HJC_reg			
		X1	Y1	Z1	X2	Y2	Z2	X3	Y3	Z3	X4	Y4	Z4	X5	Y5	Z5	X6	Y6	Z6	X7	Y7	Z7	X8	Y8	Z8	X9	Y9	Z9	X10	Y10	Z10	X11	Y11	Z11	X12	Y12	Z12	X13	Y13	Z13	X14	Y14	Z14	X15	Y15	Z15	X16	Y16	Z16	X17	Y17	Z17	X18	Y18	Z18	X19	Y19	Z19	X20	Y20	Z20	X21	Y21	Z21	X22	Y22	Z22	X23	Y23	Z23	X24	Y24	Z24	X25	Y25	Z25	X26	Y26	Z26	X27	Y27	Z27	X28	Y28	Z28	X29	Y29	Z29	X30	Y30	Z30	X31	Y31	Z31	X32	Y32	Z32	X33	Y33	Z33	X34	Y34	Z34	X35	Y35	Z35	X36	Y36	Z36	X37	Y37	Z37	X38	Y38	Z38	X39	Y39	Z39	X40	Y40	Z40	X41	Y41	Z41	X42	Y42	Z42	X43	Y43	Z43	X44	Y44	Z44	X45	Y45	Z45	X46	Y46	Z46	X47	Y47	Z47	X48	Y48	Z48	X49	Y49	Z49	X50	Y50	Z50	X51	Y51	Z51	

88	0.87000000	1023.59379	590.34377	-60.92466	1032.81286	483.65055	-81.81261	806.24997	233.14613	-127.65668	716.58437	235.64961	-185.65715	854.46826	101.02519	-88.62351	926.43206	98.32284	-144.35582	871.89127	544.77195	-399.70833	870.82626	452.97508	-417.56444	845.97631	118.66459	-344.39402	776.92931	71.95909	-280.41191	960.96597	48.54355	-380.69037	1024.56059	80.05173	-323.70601	965.83655	393.82584	-66.10288	985.35342	524.43484	-37.77198	902.80612	442.74138	-39.41257	784.33213	461.30867	-392.85820	790.89494	340.20133	-383.45470	961.60280	910.19023	-60.01926	1014.67518	814.10341	-57.69011	976.16166	767.92283	-24.28969	865.91544	859.84278	-38.73041	925.30658	756.23020	-40.23734	911.52379	850.00728	-418.80222	939.47064	712.04005	-408.57477	805.50555	825.19727	-429.30832	828.53399	691.26951	-422.97220	915.13046	1093.61780	-111.59631	733.06245	1096.50376	-167.40404	906.37589	1074.44193	-362.69959	724.94674	1094.74244	-277.65545	893.45782	1598.76535	-397.18196	981.00315	1575.68476	-223.30452	888.95345	1460.10686	-531.76556	988.32699	1489.58174	-349.39596	973.70988	1467.53013	-398.78470	941.29726	1451.06740	-106.22452	777.82747	1303.35290	-80.27000	815.47611	1332.64141	-6.90113	853.85903	1166.07242	40.88113	880.45796	1070.50354	40.47071	850.80833	1087.59327	73.00480	836.85183	1323.40989	-565.70253	783.97914	1118.68831	-429.97212	771.71964	1110.93957	-512.05031	808.31287	1046.39602	-534.92671	876.07105	880.95024	-529.79659	838.30252	869.20349	-521.02282	840.11511	973.89432	-118.80749	823.14539	966.63198	-324.94280	861.96730	1000.21318	-141.50554	849.75978	997.56367	-307.34736	
89	0.88000000	1039.52447	594.09008	-64.69376	1052.63887	487.47207	-84.81024	839.18369	225.42975	-128.24935	749.37484	222.25540	-186.11234	894.81877	96.92134	-87.71697	966.84249	97.70909	-143.35256	873.44494	545.12106	-399.76968	871.80352	453.28756	-417.66720	845.93936	118.93157	-344.38903	777.05348	72.12517	-280.37870	961.01192	48.52879	-380.71886	1024.54224	79.93210	-323.80891	990.62644	394.72851	-68.31741	1003.56837	526.25091	-40.69786	925.30017	440.43391	-41.16721	785.40754	462.01425	-392.60494	791.44940	340.87536	-383.22430	974.85212	913.83525	-62.87872	1028.49457	818.11750	-61.39691	990.84675	771.68275	-27.58054	879.59576	862.48117	-41.00782	939.68203	759.65963	-43.27547	918.98840	849.50767	-420.72503	944.16928	711.09831	-409.88568	812.33765	826.93795	-430.01301	832.76435	692.66471	-423.44287	926.30189	1095.72582	-114.05443	744.21469	1098.36779	-169.22626	916.96672	1075.98832	-365.06170	735.94426	1096.49991	-279.46582	903.93301	1602.36516	-395.24398	989.57110	1578.25114	-220.65759	901.12322	1465.54324	-531.22079	999.16575	1493.54042	-347.56351	984.44423	1471.80828	-397.26387	949.63311	1452.31105	-105.21898	786.91145	1303.34836	-82.58878	823.40493	1331.98911	-8.55395	860.56910	1165.14329	39.11128	886.62736	1069.36321	38.77791	856.60220	1086.59888	70.89903	851.01747	1328.71420	-567.33184	800.88605	1121.16919	-434.40428	789.51848	1114.24639	-516.83728	828.54614	1051.43161	-540.42596	902.91331	888.72779	-537.64839	865.32453	875.48956	-529.30322	851.43101	975.93959	-120.74625	833.89060	968.26155	-326.81889	873.11073	1002.07995	-143.78591	860.67238	999.27049	-309.58666	
90	0.89000000	1054.66408	597.23067	-68.35147	1071.49198	491.03461	-87.42976	872.59471	217.62126	-128.87852	783.01036	208.64272	-186.54170	935.61035	93.17595	-87.00320	1007.47450	97.60492	-142.59878	875.04460	545.47178	-399.81195	872.86312	453.57392	-417.74802	845.99662	119.20777	-344.32767	777.07209	72.36133	-280.34009	961.04645	48.52409	-380.74159	1024.52981	79.76758	-323.88989	1014.55180	395.60315	-70.24402	1020.64238	527.77786	-43.74945	946.91176	438.06277	-43.32402	786.54501	462.68989	-392.33955	792.07136	341.52253	-382.97478	988.00216	916.90127	-65.67029	1041.94789	821.38597	-64.95337	1004.97849	774.75697	-30.86108	892.97424	864.73165	-43.25839	953.41619	762.64024	-46.36136	926.47444	848.91319	-422.75863	948.91377	710.12656	-411.29759	819.15538	828.60689	-430.69742	837.17415	694.08903	-423.93466	937.55663	1097.48374	-116.50599	755.43511	1099.92284	-170.93936	927.58522	1077.34627	-367.43324	746.97053	1097.99920	-281.16755	914.34038	1605.65729	-393.22987	998.01717	1580.52550	-217.95466	913.32804	1470.64393	-530.54410	1009.85724	1497.22414	-345.63204	995.12889	1475.82137	-395.63670	957.92696	1453.26146	-104.15863	796.10649	1302.94836	-84.88932	831.40319	1331.00479	-10.18599	867.42260	1163.91380	37.38751	892.94550	1067.92628	37.14833	862.55326	1085.28603	68.82181	865.28304	1333.73916	-568.83410	817.86255	1123.39992	-438.91894	807.44347	1117.36922	-521.70358	848.81757	1056.37457	-545.92786	929.56683	896.65796	-545.33401	892.10021	882.06524	-537.49953	862.84847	977.64003	-122.71365	844.65648	969.67473	-328.71892	884.33264	1003.63594	-146.08633	871.60403	1000.74305	-311.84765	
91	0.90000000	1069.03558	599.69050	-71.83967	1089.44964	494.29797	-89.68044	906.42085	209.84775	-129.49180	817.40602	195.03133	-186.84971	976.73992	89.87478	-86.54668	1048.14675	98.05350	-142.23054	876.73186	545.81963	-399.82690	874.04194	453.82769	-417.79230	846.14879	119.49353	-344.19706	777.01795	72.63973	-280.28287	961.06472	48.53307	-380.75437	1024.54633	79.57266	-323.94050	1037.64382	396.38771	-71.87760	1036.62105	528.89555	-46.88868	967.69625	435.52104	-45.82493	787.77573	463.33704	-392.11790	792.80952	342.12823	-382.75054	1000.95432	919.30144	-68.37749	1055.02162	823.85801	-68.30443	1018.51627	777.08065	-34.08914	906.01698	866.53865	-45.49683	966.50198	765.07337	-49.44361	934.05553	848.23102	-424.83125	953.75035	709.11491	-412.73343	826.06820	830.19935	-431.39567	841.82582	695.51680	-424.46051	948.90258	1098.86871	-118.93829	766.72714	1101.14258	-172.56680	938.24918	1078.52127	-369.80099	758.03838	1099.23632	-282.77427	924.66094	1608.63465	-391.13484	1006.38229	1582.47810	-215.20482	925.57119	1475.37313	-529.74415	1020.35038	1500.58157	-343.60987	1005.80638	1479.54518	-393.91530	966.20136	1453.88493	-103.05819	805.42981	1302.15394	-87.14932	839.50531	1329.68221	-11.78708	874.43427	1162.37284	35.70968	899.43295	1066.18544	35.58047	868.67317	1083.63845	66.77580	879.61575	1338.47165	-570.20229	834.91647	1125.36347	-443.52513	825.50080	1120.30277	-526.64934	869.12056	1061.20144	-551.42175	955.97208	904.66643	-552.84352	918.59263	888.85019	-545.55909	874.36762	978.97035	-124.72430	855.46549	970.87103	-330.66044	895.64418	1004.84997	-148.41634	882.57888	1001.98358	-314.13872	
